<?xml version="1.0" encoding="UTF-8"?>
<svg xmlns="http://www.w3.org/2000/svg" version="1.1" width="100" height="100" viewBox="0 0 100 100"><rect x="0" y="0" width="100" height="100" fill="#ffffff"/><g transform="scale(4.762)"><g transform="translate(0,0)"><path fill-rule="evenodd" d="M8 0L8 2L9 2L9 4L8 4L8 9L7 9L7 8L5 8L5 10L4 10L4 9L3 9L3 8L0 8L0 9L1 9L1 11L0 11L0 12L1 12L1 11L2 11L2 12L3 12L3 13L8 13L8 14L11 14L11 15L15 15L15 17L16 17L16 19L17 19L17 20L16 20L16 21L17 21L17 20L18 20L18 19L21 19L21 18L19 18L19 17L18 17L18 15L19 15L19 13L20 13L20 16L21 16L21 13L20 13L20 12L19 12L19 13L18 13L18 11L19 11L19 10L18 10L18 9L17 9L17 8L13 8L13 9L12 9L12 8L11 8L11 5L13 5L13 3L12 3L12 2L13 2L13 0ZM10 1L10 2L11 2L11 1ZM10 3L10 4L9 4L9 7L10 7L10 5L11 5L11 3ZM12 6L12 7L13 7L13 6ZM19 8L19 9L20 9L20 11L21 11L21 8ZM6 9L6 10L7 10L7 9ZM9 9L9 10L8 10L8 11L6 11L6 12L8 12L8 13L9 13L9 12L10 12L10 11L9 11L9 10L11 10L11 9ZM14 9L14 10L15 10L15 9ZM2 10L2 11L3 11L3 12L5 12L5 11L4 11L4 10ZM17 10L17 11L16 11L16 12L15 12L15 11L12 11L12 13L13 13L13 12L14 12L14 13L15 13L15 14L16 14L16 13L17 13L17 11L18 11L18 10ZM17 14L17 15L18 15L18 14ZM8 15L8 16L9 16L9 15ZM10 16L10 17L9 17L9 18L8 18L8 21L9 21L9 18L10 18L10 19L13 19L13 18L14 18L14 17L12 17L12 18L10 18L10 17L11 17L11 16ZM16 16L16 17L17 17L17 16ZM17 18L17 19L18 19L18 18ZM11 20L11 21L13 21L13 20ZM20 20L20 21L21 21L21 20ZM0 0L0 7L7 7L7 0ZM1 1L1 6L6 6L6 1ZM2 2L2 5L5 5L5 2ZM14 0L14 7L21 7L21 0ZM15 1L15 6L20 6L20 1ZM16 2L16 5L19 5L19 2ZM0 14L0 21L7 21L7 14ZM1 15L1 20L6 20L6 15ZM2 16L2 19L5 19L5 16Z" fill="#000000"/></g></g></svg>
