<svg height="480pt" viewBox="0 -16 480 480" width="480pt" xmlns="http://www.w3.org/2000/svg"><path d="m8 72h464v368h-464zm0 0" fill="#ffd782"/><path d="m56 8h80v112h-80zm0 0" fill="#e97424"/><path d="m344 8h80v112h-80zm0 0" fill="#e97424"/><g fill="#7d8d9c"><path d="m344 288h-208c-4.417969 0-8-3.582031-8-8s3.582031-8 8-8h208c4.417969 0 8 3.582031 8 8s-3.582031 8-8 8zm0 0"/><path d="m288 320h-152c-4.417969 0-8-3.582031-8-8s3.582031-8 8-8h152c4.417969 0 8 3.582031 8 8s-3.582031 8-8 8zm0 0"/><path d="m344 320h-24c-4.417969 0-8-3.582031-8-8s3.582031-8 8-8h24c4.417969 0 8 3.582031 8 8s-3.582031 8-8 8zm0 0"/><path d="m344 352h-208c-4.417969 0-8-3.582031-8-8s3.582031-8 8-8h208c4.417969 0 8 3.582031 8 8s-3.582031 8-8 8zm0 0"/><path d="m288 384h-152c-4.417969 0-8-3.582031-8-8s3.582031-8 8-8h152c4.417969 0 8 3.582031 8 8s-3.582031 8-8 8zm0 0"/><path d="m344 384h-24c-4.417969 0-8-3.582031-8-8s3.582031-8 8-8h24c4.417969 0 8 3.582031 8 8s-3.582031 8-8 8zm0 0"/></g><path d="m280 176c0 22.089844-17.910156 40-40 40s-40-17.910156-40-40 17.910156-40 40-40 40 17.910156 40 40zm0 0" fill="#36afad"/><path d="m344 272h-208c-4.417969 0-8 3.582031-8 8s3.582031 8 8 8h208c4.417969 0 8-3.582031 8-8s-3.582031-8-8-8zm0 0"/><path d="m136 320h152c4.417969 0 8-3.582031 8-8s-3.582031-8-8-8h-152c-4.417969 0-8 3.582031-8 8s3.582031 8 8 8zm0 0"/><path d="m344 304h-24c-4.417969 0-8 3.582031-8 8s3.582031 8 8 8h24c4.417969 0 8-3.582031 8-8s-3.582031-8-8-8zm0 0"/><path d="m344 336h-208c-4.417969 0-8 3.582031-8 8s3.582031 8 8 8h208c4.417969 0 8-3.582031 8-8s-3.582031-8-8-8zm0 0"/><path d="m288 368h-152c-4.417969 0-8 3.582031-8 8s3.582031 8 8 8h152c4.417969 0 8-3.582031 8-8s-3.582031-8-8-8zm0 0"/><path d="m344 368h-24c-4.417969 0-8 3.582031-8 8s3.582031 8 8 8h24c4.417969 0 8-3.582031 8-8s-3.582031-8-8-8zm0 0"/><path d="m240 224c26.507812 0 48-21.492188 48-48s-21.492188-48-48-48-48 21.492188-48 48c.027344 26.5 21.5 47.972656 48 48zm0-80c17.671875 0 32 14.328125 32 32s-14.328125 32-32 32-32-14.328125-32-32 14.328125-32 32-32zm0 0"/><path d="m472 64h-40v-56c0-4.417969-3.582031-8-8-8h-80c-4.417969 0-8 3.582031-8 8v56h-192v-56c0-4.417969-3.582031-8-8-8h-80c-4.417969 0-8 3.582031-8 8v56h-40c-4.417969 0-8 3.582031-8 8v368c0 4.417969 3.582031 8 8 8h464c4.417969 0 8-3.582031 8-8v-368c0-4.417969-3.582031-8-8-8zm-120-48h64v96h-64zm-288 0h64v96h-64zm400 416h-448v-352h32v40c0 4.417969 3.582031 8 8 8h80c4.417969 0 8-3.582031 8-8v-40h192v40c0 4.417969 3.582031 8 8 8h80c4.417969 0 8-3.582031 8-8v-40h32zm0 0"/></svg>