<?xml version="1.0"?>
<svg xmlns="http://www.w3.org/2000/svg" xmlns:xlink="http://www.w3.org/1999/xlink" xmlns:svgjs="http://svgjs.com/svgjs" version="1.1" width="512" height="512" x="0" y="0" viewBox="0 0 64 64" style="enable-background:new 0 0 512 512" xml:space="preserve" class=""><g><g xmlns="http://www.w3.org/2000/svg" id="Filled_outline" data-name="Filled outline"><path d="m61 54c-5.389-1.617-8.586-4.71-10-8a29.411 29.411 0 0 0 4-14 26 26 0 1 0 -26 26c2.861 0 6.426-1.146 9-2 14.255 2.532 23-2 23-2z" fill="#fdbd40" data-original="#eb9198" style="" class=""/><g fill="#fff"><path d="m29 55v-2a21.307 21.307 0 0 0 5.728-.962l.544 1.924a23.1 23.1 0 0 1 -6.272 1.038z" fill="#ffffff" data-original="#ffffff" style=""/><path d="m8 32h-2a23.025 23.025 0 0 1 23-23v2a21.024 21.024 0 0 0 -21 21z" fill="#ffffff" data-original="#ffffff" style=""/><path d="m25 53h2v2h-2z" fill="#ffffff" data-original="#ffffff" style=""/></g><circle cx="29" cy="32" fill="#ffffff" r="2" data-original="#bb3d5d" style="" class=""/><circle cx="19" cy="32" fill="#ffffff" r="2" data-original="#bb3d5d" style="" class=""/><circle cx="39" cy="32" fill="#ffffff" r="2" data-original="#bb3d5d" style="" class=""/><path d="m29 5a27 27 0 0 0 0 54c2.811 0 6.14-1 9.075-1.972 14.277 2.469 23.018-1.949 23.385-2.14a1 1 0 0 0 -.173-1.846c-4.369-1.311-7.6-3.783-9.164-6.99a30.436 30.436 0 0 0 3.877-14.052 27.03 27.03 0 0 0 -27-27zm21.081 41.4a15.052 15.052 0 0 0 8.1 7.635 41.6 41.6 0 0 1 -20.005.986.957.957 0 0 0 -.489.035c-2.201.724-5.88 1.944-8.687 1.944a25 25 0 1 1 25-25 28.347 28.347 0 0 1 -3.862 13.493 1 1 0 0 0 -.057.907z" fill="#000000" data-original="#000000" style="" class=""/><path d="m29 53v2a23.1 23.1 0 0 0 6.272-1.038l-.544-1.924a21.307 21.307 0 0 1 -5.728.962z" fill="#000000" data-original="#000000" style="" class=""/><path d="m29 9a23.025 23.025 0 0 0 -23 23h2a21.024 21.024 0 0 1 21-21z" fill="#000000" data-original="#000000" style="" class=""/><path d="m25 53h2v2h-2z" fill="#000000" data-original="#000000" style="" class=""/><path d="m32 32a3 3 0 1 0 -3 3 3 3 0 0 0 3-3zm-4 0a1 1 0 1 1 1 1 1 1 0 0 1 -1-1z" fill="#000000" data-original="#000000" style="" class=""/><path d="m19 29a3 3 0 1 0 3 3 3 3 0 0 0 -3-3zm0 4a1 1 0 1 1 1-1 1 1 0 0 1 -1 1z" fill="#000000" data-original="#000000" style="" class=""/><path d="m39 29a3 3 0 1 0 3 3 3 3 0 0 0 -3-3zm0 4a1 1 0 1 1 1-1 1 1 0 0 1 -1 1z" fill="#000000" data-original="#000000" style="" class=""/></g></g></svg>
