<?xml version="1.0" encoding="iso-8859-1"?>
<!-- Generator: Adobe Illustrator 19.0.0, SVG Export Plug-In . SVG Version: 6.00 Build 0)  -->
<svg version="1.1" id="Capa_1" xmlns="http://www.w3.org/2000/svg" xmlns:xlink="http://www.w3.org/1999/xlink" x="0px" y="0px"
	 viewBox="0 0 512 512" style="enable-background:new 0 0 512 512;" xml:space="preserve">
<path style="fill:#FFD974;" d="M430.615,77.267c3.619,1.285,7.514,1.989,11.575,1.989H69.808c-9.572,0-18.219-3.868-24.49-10.138
	c-5.042-5.042-8.522-11.603-9.696-18.951c-0.29-1.796-0.442-3.647-0.442-5.539C35.179,25.512,50.677,10,69.808,10h372.383
	c-9.558,0-18.205,3.881-24.476,10.138c-6.271,6.271-10.138,14.931-10.138,24.49c0,1.892,0.152,3.743,0.442,5.539
	C410.036,62.778,418.875,73.11,430.615,77.267z"/>
<path style="fill:#4B7C91;" d="M476.82,44.628v368.236h-34.628V79.256c-19.117,0-34.614-15.498-34.614-34.628
	c0-9.558,3.867-18.219,10.138-24.49C423.985,13.881,432.633,10,442.19,10C461.321,10,476.82,25.512,476.82,44.628z"/>
<rect x="69.808" y="79.26" style="fill:#FFF6E1;" width="372.38" height="422.74"/>
<path d="M442.19,0H69.808C45.2,0,25.18,20.02,25.18,44.628c0,2.395,0.191,4.794,0.566,7.117c1.487,9.3,5.811,17.753,12.501,24.443
	c6.017,6.018,13.457,10.092,21.561,11.937V502c0,5.523,4.478,10,10,10h372.383c5.522,0,10-4.477,10-10v-79.136h24.628
	c5.522,0,10-4.477,10-10V44.628C486.818,20.02,466.799,0,442.19,0z M45.493,48.572c-0.208-1.288-0.313-2.614-0.313-3.944
	C45.18,31.048,56.228,20,69.808,20h335.157c-0.344,0.517-0.672,1.042-0.993,1.572c-0.096,0.158-0.187,0.318-0.28,0.477
	c-0.245,0.416-0.483,0.836-0.714,1.259c-0.098,0.18-0.196,0.36-0.292,0.542c-0.258,0.49-0.507,0.984-0.747,1.483
	c-0.043,0.09-0.09,0.178-0.132,0.268c-0.275,0.583-0.534,1.172-0.783,1.766c-0.072,0.172-0.139,0.345-0.209,0.517
	c-0.181,0.447-0.354,0.896-0.52,1.349c-0.069,0.188-0.138,0.376-0.205,0.565c-0.192,0.548-0.375,1.099-0.546,1.655
	c-0.021,0.068-0.045,0.135-0.065,0.204c-0.187,0.62-0.358,1.246-0.518,1.875c-0.046,0.183-0.089,0.366-0.133,0.549
	c-0.114,0.471-0.219,0.944-0.318,1.419c-0.04,0.195-0.081,0.389-0.119,0.584c-0.117,0.606-0.224,1.215-0.316,1.828
	c-0.006,0.038-0.013,0.075-0.019,0.113c-0.096,0.65-0.173,1.303-0.24,1.96c-0.02,0.191-0.035,0.382-0.052,0.574
	c-0.044,0.492-0.08,0.985-0.109,1.48c-0.011,0.195-0.023,0.39-0.032,0.585c-0.029,0.666-0.049,1.333-0.049,2.004
	c0,0.629,0.015,1.257,0.041,1.885c0.009,0.227,0.028,0.451,0.04,0.676c0.023,0.401,0.045,0.803,0.079,1.202
	c0.021,0.253,0.05,0.503,0.075,0.754c0.037,0.37,0.075,0.739,0.121,1.107c0.034,0.267,0.074,0.532,0.112,0.798
	c0.034,0.232,0.061,0.466,0.098,0.696c0.014,0.089,0.035,0.176,0.05,0.264c0.089,0.531,0.19,1.059,0.297,1.583
	c0.043,0.213,0.081,0.429,0.127,0.641c0.143,0.649,0.3,1.292,0.471,1.93c0.115,0.434,0.246,0.862,0.374,1.291
	c0.064,0.214,0.126,0.429,0.193,0.641c0.158,0.501,0.326,0.997,0.501,1.49c0.031,0.088,0.063,0.176,0.095,0.263
	c1.204,3.33,2.78,6.489,4.707,9.406H69.808c-6.583,0-12.77-2.561-17.419-7.21C48.696,58.354,46.313,53.701,45.493,48.572z
	 M432.19,492H79.808V89.256h352.383L432.19,492L432.19,492z M466.818,402.864H452.19V79.256c0-5.523-4.478-10-10-10
	c-0.634,0-1.265-0.032-1.893-0.08c-0.116-0.009-0.233-0.016-0.349-0.027c-0.599-0.054-1.195-0.131-1.787-0.229
	c-0.122-0.02-0.242-0.043-0.363-0.065c-0.6-0.108-1.197-0.233-1.788-0.386c-0.063-0.016-0.124-0.036-0.186-0.053
	c-0.545-0.146-1.085-0.314-1.621-0.498c-0.131-0.045-0.263-0.086-0.393-0.133c-0.411-0.148-0.815-0.308-1.214-0.477
	c-0.278-0.118-0.551-0.245-0.824-0.373c-0.123-0.057-0.246-0.115-0.368-0.174c-6.254-3.064-11.022-8.704-12.923-15.53
	c-0.063-0.228-0.126-0.455-0.183-0.685c-0.053-0.216-0.103-0.434-0.151-0.652c-0.072-0.332-0.137-0.667-0.196-1.004
	c-0.024-0.137-0.052-0.273-0.073-0.41c-0.087-0.552-0.152-1.111-0.201-1.675c-0.012-0.138-0.022-0.278-0.032-0.417
	c-0.041-0.584-0.07-1.17-0.07-1.759c0-6.583,2.561-12.77,7.202-17.411C429.443,22.563,435.627,20,442.19,20
	c13.58,0,24.628,11.048,24.628,24.628V402.864z"/>
<path d="M385.109,145.77c-0.659,0-1.31-0.06-1.96-0.19c-0.64-0.13-1.27-0.32-1.869-0.57c-0.601-0.25-1.181-0.56-1.73-0.92
	c-0.54-0.37-1.06-0.78-1.52-1.25c-0.461-0.46-0.881-0.97-1.24-1.52c-0.36-0.54-0.67-1.12-0.92-1.72c-0.25-0.61-0.44-1.23-0.57-1.87
	c-0.13-0.65-0.19-1.3-0.19-1.96c0-0.65,0.061-1.31,0.19-1.95c0.129-0.64,0.32-1.27,0.57-1.87s0.56-1.19,0.92-1.73
	c0.359-0.55,0.779-1.06,1.24-1.52c0.46-0.46,0.979-0.88,1.52-1.24c0.55-0.36,1.13-0.67,1.73-0.92c0.6-0.25,1.229-0.44,1.869-0.57
	c1.29-0.26,2.62-0.26,3.91,0c0.641,0.13,1.26,0.32,1.87,0.57c0.601,0.25,1.18,0.56,1.72,0.92c0.551,0.36,1.061,0.78,1.53,1.24
	c0.46,0.46,0.87,0.97,1.24,1.52c0.36,0.54,0.67,1.13,0.92,1.73s0.44,1.23,0.57,1.87s0.199,1.3,0.199,1.95
	c0,0.66-0.069,1.31-0.199,1.96c-0.13,0.64-0.32,1.26-0.57,1.87c-0.25,0.6-0.56,1.18-0.92,1.72c-0.37,0.55-0.78,1.06-1.24,1.52
	c-0.47,0.47-0.979,0.88-1.53,1.25c-0.54,0.36-1.119,0.67-1.72,0.92c-0.6,0.25-1.229,0.44-1.87,0.57
	C386.409,145.71,385.76,145.77,385.109,145.77z"/>
<path d="M349.096,145.774H248.943c-5.522,0-10-4.477-10-10s4.478-10,10-10h100.152c5.522,0,10,4.477,10,10
	S354.618,145.774,349.096,145.774z"/>
<path d="M385.104,186.548h-136.16c-5.522,0-10-4.477-10-10s4.478-10,10-10h136.16c5.522,0,10,4.477,10,10
	S390.627,186.548,385.104,186.548z"/>
<circle style="fill:#00CDB3;" cx="165.919" cy="156.16" r="43.617"/>
<path d="M165.917,209.777c-29.564,0-53.616-24.052-53.616-53.617c0-29.564,24.052-53.616,53.616-53.616s53.617,24.052,53.617,53.616
	C219.533,185.725,195.48,209.777,165.917,209.777z M165.917,122.544c-18.536,0-33.616,15.08-33.616,33.616
	s15.08,33.617,33.616,33.617s33.617-15.081,33.617-33.617S184.452,122.544,165.917,122.544z"/>
<path d="M163.643,174.758c-1.273,0-2.558-0.244-3.782-0.744l-12.646-5.17c-5.112-2.09-7.563-7.929-5.472-13.041
	c2.09-5.112,7.926-7.562,13.04-5.472l6.492,2.654l12.491-12.491c3.906-3.905,10.236-3.906,14.143,0
	c3.905,3.905,3.905,10.237,0,14.142l-17.192,17.193C168.802,173.741,166.244,174.758,163.643,174.758z"/>
<path d="M385.109,278.02c-0.659,0-1.31-0.07-1.96-0.2c-0.64-0.13-1.27-0.32-1.869-0.57c-0.601-0.25-1.181-0.56-1.73-0.92
	c-0.54-0.36-1.06-0.78-1.52-1.24c-0.461-0.46-0.881-0.97-1.24-1.52c-0.36-0.54-0.67-1.12-0.92-1.73c-0.25-0.6-0.44-1.23-0.57-1.87
	c-0.13-0.64-0.19-1.3-0.19-1.95c0-0.65,0.061-1.31,0.19-1.95c0.129-0.64,0.32-1.27,0.57-1.88c0.25-0.6,0.56-1.18,0.92-1.72
	c0.359-0.55,0.779-1.06,1.24-1.52c0.46-0.46,0.979-0.88,1.52-1.25c0.55-0.36,1.13-0.66,1.73-0.91c0.6-0.25,1.229-0.45,1.869-0.57
	c1.29-0.26,2.62-0.26,3.91,0c0.641,0.12,1.271,0.32,1.87,0.57c0.601,0.25,1.18,0.55,1.72,0.91c0.551,0.37,1.061,0.79,1.53,1.25
	c1.86,1.86,2.93,4.44,2.93,7.07s-1.069,5.21-2.93,7.07c-0.47,0.46-0.979,0.88-1.53,1.24c-0.54,0.36-1.119,0.67-1.72,0.92
	c-0.6,0.25-1.229,0.44-1.87,0.57C386.409,277.95,385.76,278.02,385.109,278.02z"/>
<path d="M349.096,278.019H248.943c-5.522,0-10-4.477-10-10s4.478-10,10-10h100.152c5.522,0,10,4.477,10,10
	S354.618,278.019,349.096,278.019z"/>
<path d="M385.104,318.792h-136.16c-5.522,0-10-4.477-10-10s4.478-10,10-10h136.16c5.522,0,10,4.477,10,10
	S390.627,318.792,385.104,318.792z"/>
<circle style="fill:#4B7C91;" cx="165.919" cy="288.41" r="43.616"/>
<path d="M165.917,342.022c-29.564,0-53.616-24.052-53.616-53.616s24.052-53.617,53.616-53.617s53.617,24.052,53.617,53.617
	C219.533,317.97,195.48,342.022,165.917,342.022z M165.917,254.789c-18.536,0-33.616,15.081-33.616,33.617
	s15.08,33.616,33.616,33.616s33.617-15.08,33.617-33.616S184.452,254.789,165.917,254.789z"/>
<path d="M163.643,307.002c-1.273,0-2.558-0.244-3.782-0.744l-12.646-5.17c-5.112-2.09-7.563-7.928-5.473-13.041
	c2.09-5.111,7.924-7.563,13.041-5.472l6.492,2.654l12.491-12.492c3.906-3.905,10.236-3.905,14.143,0
	c3.905,3.905,3.905,10.237,0,14.143l-17.192,17.192C168.802,305.985,166.244,307.002,163.643,307.002z"/>
<path d="M385.109,410.26c-0.659,0-1.31-0.06-1.96-0.19c-0.64-0.13-1.27-0.32-1.869-0.57c-0.601-0.25-1.181-0.56-1.73-0.92
	c-0.54-0.37-1.06-0.79-1.52-1.25c-0.461-0.46-0.881-0.97-1.24-1.52c-0.36-0.54-0.67-1.12-0.92-1.72c-0.25-0.61-0.44-1.24-0.57-1.87
	c-0.13-0.65-0.19-1.31-0.19-1.96s0.061-1.31,0.19-1.95c0.13-0.64,0.32-1.27,0.57-1.87c0.25-0.61,0.56-1.19,0.92-1.73
	c0.359-0.55,0.779-1.06,1.24-1.52c0.46-0.46,0.979-0.88,1.52-1.24c0.55-0.36,1.13-0.67,1.73-0.92c0.6-0.25,1.229-0.44,1.869-0.57
	c1.29-0.26,2.62-0.26,3.91,0c0.641,0.13,1.26,0.32,1.87,0.57c0.601,0.25,1.18,0.56,1.72,0.92c0.551,0.36,1.061,0.78,1.53,1.24
	c0.46,0.46,0.87,0.97,1.24,1.52c0.36,0.54,0.67,1.12,0.92,1.73c0.25,0.6,0.44,1.23,0.57,1.87c0.13,0.64,0.199,1.3,0.199,1.95
	s-0.069,1.31-0.199,1.96c-0.13,0.63-0.32,1.26-0.57,1.87c-0.25,0.6-0.56,1.18-0.92,1.72c-0.37,0.55-0.78,1.06-1.24,1.52
	c-0.47,0.46-0.979,0.88-1.53,1.25c-0.54,0.36-1.119,0.67-1.72,0.92c-0.6,0.25-1.229,0.44-1.87,0.57
	C386.409,410.2,385.76,410.26,385.109,410.26z"/>
<path d="M349.096,410.264H248.943c-5.522,0-10-4.477-10-10s4.478-10,10-10h100.152c5.522,0,10,4.477,10,10
	S354.618,410.264,349.096,410.264z"/>
<path d="M385.104,451.038h-136.16c-5.522,0-10-4.477-10-10s4.478-10,10-10h136.16c5.522,0,10,4.477,10,10
	S390.627,451.038,385.104,451.038z"/>
<circle style="fill:#00CDB3;" cx="165.919" cy="420.65" r="43.617"/>
<path d="M165.917,474.267c-29.564,0-53.616-24.052-53.616-53.617c0-29.564,24.052-53.616,53.616-53.616s53.617,24.052,53.617,53.616
	C219.533,450.215,195.48,474.267,165.917,474.267z M165.917,387.034c-18.536,0-33.616,15.08-33.616,33.616
	s15.08,33.617,33.616,33.617s33.617-15.081,33.617-33.617S184.452,387.034,165.917,387.034z"/>
<path d="M163.643,439.248c-1.273,0-2.558-0.244-3.782-0.744l-12.646-5.17c-5.112-2.09-7.563-7.928-5.473-13.041
	c2.09-5.112,7.924-7.563,13.041-5.472l6.492,2.654l12.491-12.492c3.906-3.905,10.236-3.906,14.143,0
	c3.905,3.905,3.905,10.237,0,14.142l-17.192,17.193C168.802,438.23,166.244,439.248,163.643,439.248z"/>
<g>
</g>
<g>
</g>
<g>
</g>
<g>
</g>
<g>
</g>
<g>
</g>
<g>
</g>
<g>
</g>
<g>
</g>
<g>
</g>
<g>
</g>
<g>
</g>
<g>
</g>
<g>
</g>
<g>
</g>
</svg>
