<?xml version="1.0" encoding="UTF-8"?>
<svg xmlns="http://www.w3.org/2000/svg" version="1.1" width="100" height="100" viewBox="0 0 100 100"><rect x="0" y="0" width="100" height="100" fill="#ffffff"/><g transform="scale(4.762)"><g transform="translate(0,0)"><path fill-rule="evenodd" d="M9 0L9 1L8 1L8 3L9 3L9 4L8 4L8 8L6 8L6 9L4 9L4 8L3 8L3 10L0 10L0 12L1 12L1 11L2 11L2 12L3 12L3 13L7 13L7 12L3 12L3 10L4 10L4 11L7 11L7 10L8 10L8 12L9 12L9 10L11 10L11 8L12 8L12 14L11 14L11 12L10 12L10 13L8 13L8 15L9 15L9 16L10 16L10 17L8 17L8 18L9 18L9 19L8 19L8 21L10 21L10 17L12 17L12 19L11 19L11 21L12 21L12 19L13 19L13 17L12 17L12 15L13 15L13 16L14 16L14 15L13 15L13 14L16 14L16 17L14 17L14 18L15 18L15 20L13 20L13 21L17 21L17 19L19 19L19 18L20 18L20 19L21 19L21 17L17 17L17 14L16 14L16 12L15 12L15 11L13 11L13 10L14 10L14 9L16 9L16 10L17 10L17 12L18 12L18 11L19 11L19 12L21 12L21 9L20 9L20 8L18 8L18 9L19 9L19 10L17 10L17 8L14 8L14 9L13 9L13 8L12 8L12 7L13 7L13 6L12 6L12 7L11 7L11 6L10 6L10 7L9 7L9 4L10 4L10 0ZM12 0L12 1L11 1L11 5L12 5L12 3L13 3L13 2L12 2L12 1L13 1L13 0ZM0 8L0 9L2 9L2 8ZM8 8L8 10L9 10L9 8ZM6 9L6 10L7 10L7 9ZM19 10L19 11L20 11L20 10ZM13 12L13 13L15 13L15 12ZM18 13L18 15L20 15L20 16L21 16L21 15L20 15L20 14L21 14L21 13L20 13L20 14L19 14L19 13ZM10 14L10 15L11 15L11 14ZM19 20L19 21L20 21L20 20ZM0 0L0 7L7 7L7 0ZM1 1L1 6L6 6L6 1ZM2 2L2 5L5 5L5 2ZM14 0L14 7L21 7L21 0ZM15 1L15 6L20 6L20 1ZM16 2L16 5L19 5L19 2ZM0 14L0 21L7 21L7 14ZM1 15L1 20L6 20L6 15ZM2 16L2 19L5 19L5 16Z" fill="#000000"/></g></g></svg>
