<?xml version="1.0" encoding="UTF-8"?>
<svg xmlns="http://www.w3.org/2000/svg" version="1.1" width="100" height="100" viewBox="0 0 100 100"><rect x="0" y="0" width="100" height="100" fill="#ffffff"/><g transform="scale(4.762)"><g transform="translate(0,0)"><path fill-rule="evenodd" d="M8 0L8 1L9 1L9 0ZM10 0L10 2L8 2L8 5L9 5L9 6L8 6L8 7L9 7L9 6L10 6L10 7L11 7L11 5L9 5L9 4L10 4L10 2L11 2L11 4L12 4L12 5L13 5L13 2L12 2L12 1L13 1L13 0L12 0L12 1L11 1L11 0ZM12 6L12 8L8 8L8 9L7 9L7 8L6 8L6 9L5 9L5 10L4 10L4 8L0 8L0 9L1 9L1 10L0 10L0 12L2 12L2 11L3 11L3 13L7 13L7 12L8 12L8 14L9 14L9 15L10 15L10 13L12 13L12 14L13 14L13 15L12 15L12 19L13 19L13 17L14 17L14 16L13 16L13 15L14 15L14 13L15 13L15 12L16 12L16 17L17 17L17 19L19 19L19 18L20 18L20 16L21 16L21 15L18 15L18 14L19 14L19 13L18 13L18 14L17 14L17 12L18 12L18 11L15 11L15 12L14 12L14 10L13 10L13 12L12 12L12 8L13 8L13 9L14 9L14 8L13 8L13 6ZM16 8L16 10L19 10L19 12L20 12L20 13L21 13L21 12L20 12L20 11L21 11L21 8L20 8L20 10L19 10L19 8ZM6 9L6 10L5 10L5 11L6 11L6 12L7 12L7 11L6 11L6 10L7 10L7 9ZM10 9L10 10L8 10L8 11L10 11L10 12L9 12L9 13L10 13L10 12L11 12L11 9ZM1 10L1 11L2 11L2 10ZM13 12L13 13L14 13L14 12ZM10 16L10 19L9 19L9 17L8 17L8 21L10 21L10 20L11 20L11 16ZM14 18L14 21L19 21L19 20L15 20L15 18ZM20 19L20 20L21 20L21 19ZM0 0L0 7L7 7L7 0ZM1 1L1 6L6 6L6 1ZM2 2L2 5L5 5L5 2ZM14 0L14 7L21 7L21 0ZM15 1L15 6L20 6L20 1ZM16 2L16 5L19 5L19 2ZM0 14L0 21L7 21L7 14ZM1 15L1 20L6 20L6 15ZM2 16L2 19L5 19L5 16Z" fill="#000000"/></g></g></svg>
